<svg width="37" height="18" viewBox="0 0 37 18" fill="none" xmlns="http://www.w3.org/2000/svg">
<g clip-path="url(#clip0_1261_199)">
<path d="M8.97021 0.150391H16.8042C17.1323 0.150396 17.4299 0.31123 17.6089 0.575195V0.576172L22.9468 8.55664L22.9478 8.55957C23.1139 8.79921 23.1479 9.10759 23.0435 9.38867L22.9907 9.50684L20.2017 14.7715L20.3335 14.8418L20.2007 14.7715L20.1997 14.7734C19.8946 15.3752 19.0789 15.4551 18.646 14.9658L18.5649 14.8604L18.564 14.8594L14.6909 9.08594H14.6899C14.1938 8.32797 13.1002 8.34923 12.6108 9.05371L12.521 9.20312L8.44189 17.165C8.27773 17.4741 7.94907 17.6805 7.59326 17.6807H1.10205C0.403208 17.6807 -0.056433 16.9471 0.255371 16.3174L0.254395 16.3164L8.12256 0.678711L8.12549 0.673828C8.27157 0.357265 8.6116 0.150427 8.97021 0.150391Z" fill="url(#paint0_linear_1261_199)" fill-opacity="0.2" stroke="url(#paint1_linear_1261_199)" stroke-width="0.3"/>
<path d="M27.2495 1.93567C27.5869 1.30094 28.4723 1.25508 28.8735 1.80383L28.9478 1.92102V1.922L36.7476 16.4747C37.0707 17.1011 36.6148 17.8497 35.8804 17.8497H30.0444C29.3708 17.8497 28.9292 17.1906 29.1431 16.6066L29.1948 16.4913L29.1958 16.4894L29.1968 16.4884C29.1971 16.4877 29.1972 16.4866 29.1978 16.4855C29.1992 16.4828 29.2018 16.4791 29.2046 16.4738C29.2101 16.4631 29.2183 16.4466 29.229 16.4259C29.2504 16.3846 29.2819 16.3241 29.3218 16.2472C29.4019 16.0925 29.5163 15.8709 29.6538 15.6056C29.9287 15.075 30.2956 14.3672 30.6636 13.6583C31.0315 12.9495 31.401 12.2399 31.6802 11.7052C31.8197 11.4379 31.9369 11.2143 32.02 11.0568C32.0615 10.9782 32.0937 10.9158 32.1167 10.8732C32.1275 10.8532 32.1352 10.8369 32.1411 10.8263L32.147 10.8214L32.1577 10.7999L32.4995 10.1241L32.5005 10.1251C32.6301 9.88765 32.6293 9.60343 32.5142 9.36926L32.4585 9.27258C32.2961 9.0324 32.0279 8.86739 31.7144 8.86731H25.2231C24.5497 8.86727 24.1092 8.20802 24.3228 7.62415L24.3745 7.50793L24.3755 7.50696L27.2505 1.93665L27.2495 1.93567Z" fill="url(#paint2_linear_1261_199)" fill-opacity="0.2" stroke="url(#paint3_linear_1261_199)" stroke-width="0.3"/>
</g>
<defs>
<linearGradient id="paint0_linear_1261_199" x1="11.6293" y1="0" x2="11.6293" y2="17.8302" gradientUnits="userSpaceOnUse">
<stop stop-color="#929292"/>
<stop offset="1" stop-color="#FBFBFB"/>
</linearGradient>
<linearGradient id="paint1_linear_1261_199" x1="11.6293" y1="0" x2="11.6293" y2="17.8302" gradientUnits="userSpaceOnUse">
<stop stop-color="#4B2010"/>
<stop offset="1" stop-color="#6A6A6A"/>
</linearGradient>
<linearGradient id="paint2_linear_1261_199" x1="30.5605" y1="1.27356" x2="30.5605" y2="18" gradientUnits="userSpaceOnUse">
<stop stop-color="#929292"/>
<stop offset="1" stop-color="#FBFBFB"/>
</linearGradient>
<linearGradient id="paint3_linear_1261_199" x1="30.5605" y1="1.27356" x2="30.5605" y2="18" gradientUnits="userSpaceOnUse">
<stop stop-color="#4B2010"/>
<stop offset="1" stop-color="#6A6A6A"/>
</linearGradient>
<clipPath id="clip0_1261_199">
<rect width="37" height="18" fill="white"/>
</clipPath>
</defs>
</svg>
