<svg width="157" height="23" viewBox="0 0 157 23" fill="none" xmlns="http://www.w3.org/2000/svg">
<path d="M61.66 13H59.56V3.62H62.402L64.6 8.24L65.482 10.438H65.636L66.49 8.24L68.618 3.62H71.474V13H69.374V8.24L69.444 6.77H69.29L68.744 8.24L66.784 12.44H64.236L62.276 8.24L61.73 6.77H61.576L61.66 8.24V13ZM74.7316 13.14C73.2196 13.14 72.3096 12.44 72.3096 11.264C72.3096 10.228 73.0796 9.584 74.5776 9.43L77.5876 9.122V8.856C77.5876 7.946 77.1816 7.694 76.0616 7.694C74.9976 7.694 74.5636 7.974 74.5636 8.772V8.828H72.4496V8.786C72.4496 7.05 73.9056 5.846 76.2156 5.846C78.5536 5.846 79.6596 7.05 79.6596 8.884V13H77.6996V11.39H77.5876C77.2656 12.482 76.2856 13.14 74.7316 13.14ZM74.4236 11.124C74.4236 11.502 74.7176 11.656 75.3336 11.656C76.7616 11.656 77.5316 11.32 77.5876 10.326L75.1516 10.606C74.6476 10.648 74.4236 10.788 74.4236 11.124ZM82.8241 13H80.7241V5.986H82.6701V7.848H82.7961C82.9921 6.714 83.7341 5.846 85.1481 5.846C86.7161 5.846 87.3601 6.924 87.3601 8.296V9.458H85.2601V8.73C85.2601 7.96 84.9521 7.624 84.0981 7.624C83.1601 7.624 82.8241 8.058 82.8241 8.94V13ZM90.2205 5.272H88.1205V3.62H90.2205V5.272ZM90.2205 13H88.1205V5.986H90.2205V13ZM93.4758 13.14C91.9638 13.14 91.0538 12.44 91.0538 11.264C91.0538 10.228 91.8238 9.584 93.3218 9.43L96.3318 9.122V8.856C96.3318 7.946 95.9258 7.694 94.8058 7.694C93.7418 7.694 93.3078 7.974 93.3078 8.772V8.828H91.1938V8.786C91.1938 7.05 92.6498 5.846 94.9598 5.846C97.2978 5.846 98.4038 7.05 98.4038 8.884V13H96.4438V11.39H96.3318C96.0098 12.482 95.0298 13.14 93.4758 13.14ZM93.1678 11.124C93.1678 11.502 93.4618 11.656 94.0778 11.656C95.5058 11.656 96.2758 11.32 96.3318 10.326L93.8958 10.606C93.3918 10.648 93.1678 10.788 93.1678 11.124ZM103.35 13H100.998L105.1 3.62H108.096L112.226 13H109.818L108.936 10.928H104.246L103.35 13ZM105.94 6.994L105.058 9.038H108.124L107.242 6.994L106.668 5.538H106.514L105.94 6.994ZM115.852 13.14C113.668 13.14 112.464 11.712 112.464 9.5C112.464 7.26 113.654 5.846 115.74 5.846C117.406 5.846 118.26 6.672 118.498 7.848H118.624V3.62H120.724V13H118.764V11.054H118.652C118.386 12.44 117.462 13.14 115.852 13.14ZM114.592 9.5C114.592 10.774 115.222 11.222 116.566 11.222C117.896 11.222 118.624 10.76 118.624 9.542V9.43C118.624 8.212 117.91 7.764 116.566 7.764C115.222 7.764 114.592 8.212 114.592 9.5ZM123.935 13H121.835V5.986H123.781V7.848H123.907C124.103 6.714 124.845 5.846 126.259 5.846C127.827 5.846 128.471 6.924 128.471 8.296V9.458H126.371V8.73C126.371 7.96 126.063 7.624 125.209 7.624C124.271 7.624 123.935 8.058 123.935 8.94V13ZM131.332 5.272H129.232V3.62H131.332V5.272ZM131.332 13H129.232V5.986H131.332V13ZM134.587 13.14C133.075 13.14 132.165 12.44 132.165 11.264C132.165 10.228 132.935 9.584 134.433 9.43L137.443 9.122V8.856C137.443 7.946 137.037 7.694 135.917 7.694C134.853 7.694 134.419 7.974 134.419 8.772V8.828H132.305V8.786C132.305 7.05 133.761 5.846 136.071 5.846C138.409 5.846 139.515 7.05 139.515 8.884V13H137.555V11.39H137.443C137.121 12.482 136.141 13.14 134.587 13.14ZM134.279 11.124C134.279 11.502 134.573 11.656 135.189 11.656C136.617 11.656 137.387 11.32 137.443 10.326L135.007 10.606C134.503 10.648 134.279 10.788 134.279 11.124ZM142.68 13H140.58V5.986H142.526V8.142H142.652C142.834 6.966 143.674 5.846 145.508 5.846C147.426 5.846 148.336 7.078 148.336 8.632V13H146.236V9.332C146.236 8.212 145.774 7.736 144.486 7.736C143.156 7.736 142.68 8.268 142.68 9.458V13ZM151.554 13.14C150.042 13.14 149.132 12.44 149.132 11.264C149.132 10.228 149.902 9.584 151.4 9.43L154.41 9.122V8.856C154.41 7.946 154.004 7.694 152.884 7.694C151.82 7.694 151.386 7.974 151.386 8.772V8.828H149.272V8.786C149.272 7.05 150.728 5.846 153.038 5.846C155.376 5.846 156.482 7.05 156.482 8.884V13H154.522V11.39H154.41C154.088 12.482 153.108 13.14 151.554 13.14ZM151.246 11.124C151.246 11.502 151.54 11.656 152.156 11.656C153.584 11.656 154.354 11.32 154.41 10.326L151.974 10.606C151.47 10.648 151.246 10.788 151.246 11.124Z" fill="#0C0C0C"/>
<path d="M60.6143 22.0586C60.3779 22.0586 60.1562 22.0391 59.9492 22C59.7441 21.9629 59.5537 21.9062 59.3779 21.8301L59.4541 21.2383C59.6689 21.3301 59.876 21.4004 60.0752 21.4492C60.2764 21.4961 60.4717 21.5195 60.6611 21.5195C60.9346 21.5195 61.1377 21.4717 61.2705 21.376C61.4033 21.2803 61.4697 21.1348 61.4697 20.9395C61.4697 20.6914 61.3428 20.5098 61.0889 20.3945L60.3682 20.0664C60.085 19.9375 59.8672 19.7822 59.7148 19.6006C59.5645 19.4189 59.4893 19.1934 59.4893 18.9238C59.4893 18.5605 59.5986 18.2793 59.8174 18.0801C60.0361 17.8809 60.3457 17.7812 60.7461 17.7812C61.0254 17.7812 61.2725 17.8223 61.4873 17.9043C61.7021 17.9863 61.9092 18.1201 62.1084 18.3057L61.6982 18.7217C61.5264 18.5811 61.3652 18.4795 61.2148 18.417C61.0664 18.3525 60.9111 18.3203 60.749 18.3203C60.5479 18.3203 60.3916 18.3691 60.2803 18.4668C60.1709 18.5625 60.1162 18.7051 60.1162 18.8945C60.1162 19.0293 60.1523 19.1396 60.2246 19.2256C60.2969 19.3096 60.4033 19.3848 60.5439 19.4512L61.1533 19.7383C61.4619 19.8828 61.6963 20.0459 61.8564 20.2275C62.0166 20.4092 62.0967 20.6426 62.0967 20.9277C62.0967 21.3047 61.9736 21.5879 61.7275 21.7773C61.4834 21.9648 61.1123 22.0586 60.6143 22.0586ZM65.5934 22.0586C64.57 22.0586 64.0583 21.3555 64.0583 19.9492C64.0583 18.5039 64.57 17.7812 65.5934 17.7812C66.6169 17.7812 67.1286 18.5039 67.1286 19.9492C67.1286 21.3555 66.6169 22.0586 65.5934 22.0586ZM65.5934 21.5195C66.1989 21.5195 66.5016 20.9961 66.5016 19.9492C66.5016 18.8633 66.1989 18.3203 65.5934 18.3203C64.988 18.3203 64.6852 18.8633 64.6852 19.9492C64.6852 20.9961 64.988 21.5195 65.5934 21.5195ZM69.1986 22V17.8398H69.808V22H69.1986ZM69.1986 20.3711V19.8145H71.4252V20.3711H69.1986ZM69.1986 18.3965V17.8398H71.9525V18.3965H69.1986ZM74.96 22V17.8398H75.5694V22H74.96ZM73.7413 18.3965V17.8398H76.7881V18.3965H73.7413ZM78.8698 22L78.4011 17.8398H79.0163L79.3679 21.5312H79.4265L79.8103 18.8945H80.3962L80.1999 19.4746H80.0827L79.7751 22H78.8698ZM80.4255 22L80.1179 19.4746H80.0007L79.8103 18.8945H80.3962L80.7741 21.5312H80.8327L81.1843 17.8398H81.7995L81.3308 22H80.4255ZM83.31 22L84.5111 17.8398H85.3607L86.5619 22H85.9467L84.9623 18.3438H84.9096L83.9252 22H83.31ZM83.8666 20.9863V20.4297H85.976V20.9863H83.8666ZM88.9923 20.418V19.8613H89.8536C90.086 19.8613 90.2667 19.7998 90.3956 19.6768C90.5264 19.5537 90.5919 19.3809 90.5919 19.1582C90.5919 18.9141 90.5264 18.7266 90.3956 18.5957C90.2667 18.4629 90.086 18.3965 89.8536 18.3965H89.004L88.9337 17.8398H89.8536C90.2852 17.8398 90.6182 17.9492 90.8526 18.168C91.0889 18.3867 91.2071 18.6973 91.2071 19.0996C91.2071 19.5176 91.0889 19.8418 90.8526 20.0723C90.6182 20.3027 90.2852 20.418 89.8536 20.418H88.9923ZM88.4239 22V17.8398H89.0333V22H88.4239ZM90.6563 22L89.7247 20.043H90.3692L91.3595 22H90.6563ZM93.3181 22V17.8398H93.9275V22H93.3181ZM93.3181 22V21.4434H96.072V22H93.3181ZM93.3181 20.1953V19.6387H95.5447V20.1953H93.3181ZM93.3181 18.3965V17.8398H96.072V18.3965H93.3181ZM103.499 22V21.4434H103.939C104.366 21.4434 104.688 21.3213 104.902 21.0771C105.119 20.833 105.228 20.4668 105.228 19.9785C105.228 19.4492 105.119 19.0537 104.902 18.792C104.688 18.5283 104.366 18.3965 103.939 18.3965H103.511L103.441 17.8398H103.939C105.208 17.8398 105.843 18.5527 105.843 19.9785C105.843 21.3262 105.208 22 103.939 22H103.499ZM102.931 22V17.8398H103.54V22H102.931ZM107.825 22V17.8398H108.434V22H107.825ZM107.825 22V21.4434H110.579V22H107.825ZM107.825 20.1953V19.6387H110.052V20.1953H107.825ZM107.825 18.3965V17.8398H110.579V18.3965H107.825ZM113.496 22L112.324 17.8398H112.951L113.923 21.502H113.976L114.949 17.8398H115.576L114.404 22H113.496ZM117.496 22V17.8398H118.106V22H117.496ZM117.496 22V21.4434H120.25V22H117.496ZM117.496 20.1953V19.6387H119.723V20.1953H117.496ZM117.496 18.3965V17.8398H120.25V18.3965H117.496ZM122.332 22V17.8398H122.941V22H122.332ZM122.332 22V21.4434H125.086V22H122.332ZM128.457 22.0586C127.433 22.0586 126.921 21.3555 126.921 19.9492C126.921 18.5039 127.433 17.7812 128.457 17.7812C129.48 17.7812 129.992 18.5039 129.992 19.9492C129.992 21.3555 129.48 22.0586 128.457 22.0586ZM128.457 21.5195C129.062 21.5195 129.365 20.9961 129.365 19.9492C129.365 18.8633 129.062 18.3203 128.457 18.3203C127.851 18.3203 127.548 18.8633 127.548 19.9492C127.548 20.9961 127.851 21.5195 128.457 21.5195ZM132.542 20.7109V20.1543H133.228C133.548 20.1543 133.79 20.0752 133.954 19.917C134.118 19.7568 134.2 19.5234 134.2 19.2168C134.2 18.9473 134.118 18.7432 133.954 18.6045C133.79 18.4658 133.548 18.3965 133.228 18.3965H132.554V17.8398H133.228C133.749 17.8398 134.144 17.9561 134.411 18.1885C134.681 18.4209 134.816 18.7637 134.816 19.2168C134.816 19.707 134.681 20.0791 134.411 20.333C134.144 20.585 133.749 20.7109 133.228 20.7109H132.542ZM132.003 22V17.8398H132.613V22H132.003ZM136.839 22V17.8398H137.448V22H136.839ZM136.839 22V21.4434H139.593V22H136.839ZM136.839 20.1953V19.6387H139.065V20.1953H136.839ZM136.839 18.3965V17.8398H139.593V18.3965H136.839ZM142.184 20.418V19.8613H143.045C143.278 19.8613 143.459 19.7998 143.587 19.6768C143.718 19.5537 143.784 19.3809 143.784 19.1582C143.784 18.9141 143.718 18.7266 143.587 18.5957C143.459 18.4629 143.278 18.3965 143.045 18.3965H142.196L142.126 17.8398H143.045C143.477 17.8398 143.81 17.9492 144.044 18.168C144.281 18.3867 144.399 18.6973 144.399 19.0996C144.399 19.5176 144.281 19.8418 144.044 20.0723C143.81 20.3027 143.477 20.418 143.045 20.418H142.184ZM141.616 22V17.8398H142.225V22H141.616ZM143.848 22L142.917 20.043H143.561L144.551 22H143.848Z" fill="#A6A6A6"/>
<g clip-path="url(#clip0_1215_845)">
<path d="M8.97021 3.15039H16.8042C17.1323 3.1504 17.4299 3.31123 17.6089 3.5752V3.57617L22.9468 11.5566L22.9478 11.5596C23.1375 11.8333 23.1552 12.197 22.9907 12.5068L20.2017 17.7715H20.2007L20.1997 17.7734C19.8743 18.4153 18.9679 18.4634 18.5649 17.8604L18.564 17.8594L14.6899 12.0859C14.1608 11.2775 12.9514 11.3552 12.521 12.2031L8.44189 20.165C8.27773 20.4741 7.94907 20.6805 7.59326 20.6807H1.10205C0.403208 20.6807 -0.056433 19.9471 0.255371 19.3174L0.254395 19.3164L8.12256 3.67871L8.12549 3.67383C8.27157 3.35727 8.6116 3.15043 8.97021 3.15039Z" fill="url(#paint0_linear_1215_845)" fill-opacity="0.2" stroke="url(#paint1_linear_1215_845)" stroke-width="0.3"/>
<path d="M27.2495 4.93567C27.6094 4.25867 28.5934 4.2511 28.9478 4.92102V4.922L36.7476 19.4747C37.0707 20.1011 36.6148 20.8497 35.8804 20.8497H30.0444C29.326 20.8497 28.8718 20.1 29.1948 19.4913L29.1958 19.4894L29.1968 19.4884C29.1971 19.4877 29.1972 19.4866 29.1978 19.4855C29.1992 19.4828 29.2018 19.4791 29.2046 19.4738C29.2101 19.4631 29.2183 19.4466 29.229 19.4259C29.2504 19.3846 29.2819 19.3241 29.3218 19.2472C29.4019 19.0925 29.5163 18.8709 29.6538 18.6056C29.9287 18.075 30.2956 17.3672 30.6636 16.6583C31.0315 15.9495 31.401 15.2399 31.6802 14.7052C31.8197 14.4379 31.9369 14.2143 32.02 14.0568C32.0615 13.9782 32.0937 13.9158 32.1167 13.8732C32.1275 13.8532 32.1352 13.8369 32.1411 13.8263L32.147 13.8214L32.1577 13.7999L32.4995 13.1241L32.5005 13.1251C32.6486 12.8539 32.6268 12.5217 32.4585 12.2726C32.2961 12.0324 32.0279 11.8674 31.7144 11.8673H25.2231C24.5046 11.8673 24.0512 11.1166 24.3745 10.5079L24.3755 10.507L27.2505 4.93665L27.2495 4.93567Z" fill="url(#paint2_linear_1215_845)" fill-opacity="0.2" stroke="url(#paint3_linear_1215_845)" stroke-width="0.3"/>
</g>
<line x1="48.5" y1="7" x2="48.5" y2="18" stroke="#F15A24"/>
<defs>
<linearGradient id="paint0_linear_1215_845" x1="11.6293" y1="3" x2="11.6293" y2="20.8302" gradientUnits="userSpaceOnUse">
<stop stop-color="#929292"/>
<stop offset="1" stop-color="#FBFBFB"/>
</linearGradient>
<linearGradient id="paint1_linear_1215_845" x1="11.6293" y1="3" x2="11.6293" y2="20.8302" gradientUnits="userSpaceOnUse">
<stop stop-color="#4B2010"/>
<stop offset="1" stop-color="#6A6A6A"/>
</linearGradient>
<linearGradient id="paint2_linear_1215_845" x1="30.5605" y1="4.27356" x2="30.5605" y2="21" gradientUnits="userSpaceOnUse">
<stop stop-color="#929292"/>
<stop offset="1" stop-color="#FBFBFB"/>
</linearGradient>
<linearGradient id="paint3_linear_1215_845" x1="30.5605" y1="4.27356" x2="30.5605" y2="21" gradientUnits="userSpaceOnUse">
<stop stop-color="#4B2010"/>
<stop offset="1" stop-color="#6A6A6A"/>
</linearGradient>
<clipPath id="clip0_1215_845">
<rect width="37" height="18" fill="white" transform="translate(0 3)"/>
</clipPath>
</defs>
</svg>
